#N canvas 0 43 811 717 10;
#X obj 181 187 osc/unpackOSC;
#X obj 99 230 print unpacked;
#X floatatom 342 355 5 0 0 0 - - -, f 5;
#X floatatom 289 357 5 0 0 0 - - -, f 5;
#X floatatom 234 366 5 0 0 0 - - -, f 5;
#X obj 267 318 unpack i i i;
#X obj 249 269 osc/routeOSC /midi/Akai_MPD18_MIDI_1;
#X obj 181 122 net/udpreceive 1214;
#X connect 0 0 1 0;
#X connect 0 0 6 0;
#X connect 5 0 4 0;
#X connect 5 1 3 0;
#X connect 5 2 2 0;
#X connect 6 0 5 0;
#X connect 7 0 0 0;
